<?xml version="1.0" standalone="no"?>
<!DOCTYPE svg PUBLIC "-//W3C//DTD SVG 20010904//EN"
 "http://www.w3.org/TR/2001/REC-SVG-20010904/DTD/svg10.dtd">
<svg version="1.0" xmlns="http://www.w3.org/2000/svg"
 width="700.000000pt" height="700.000000pt" viewBox="0 0 700.000000 700.000000"
 preserveAspectRatio="xMidYMid meet">
<metadata>
Created by potrace 1.14, written by Peter Selinger 2001-2017
</metadata>
<g transform="translate(0.000000,700.000000) scale(0.100000,-0.100000)"
fill="#000000" stroke="none">
<path d="M4063 6080 c-17 -10 -38 -29 -45 -42 -11 -19 -13 -324 -14 -1643 0
-1412 -5 -1882 -19 -1954 -2 -9 -6 -53 -10 -97 -18 -228 -69 -340 -208 -460
-131 -113 -331 -191 -517 -201 -170 -9 -317 30 -483 128 -95 56 -137 89 -223
174 -86 85 -147 172 -202 287 -49 103 -83 133 -142 125 -20 -2 -105 -26 -186
-52 -82 -25 -221 -69 -309 -97 -88 -27 -207 -64 -265 -83 -58 -18 -166 -52
-240 -74 -175 -54 -199 -66 -221 -115 -10 -22 -16 -43 -14 -46 2 -3 6 -30 10
-60 15 -131 72 -320 135 -455 283 -597 906 -995 1720 -1100 212 -27 663 -28
806 -1 10 2 44 7 74 11 30 4 64 9 75 11 11 3 36 7 55 10 368 60 824 269 1085
496 351 307 550 695 590 1148 1 19 5 58 9 85 3 28 8 86 11 130 3 44 7 107 10
140 11 141 16 216 30 465 15 265 18 615 19 1829 1 1495 5 1404 -58 1442 -30
18 -65 19 -736 19 -680 0 -706 -1 -737 -20z"/>
</g>
</svg>
